<svg xmlns="http://www.w3.org/2000/svg" viewBox="4.13 2.602 91.737 94.807"><path d="M68.11,40.19H27.4l-1.42-4.86c-0.14-0.48-0.58-0.81-1.09-0.81h-5.11c-0.63,0-1.13,0.51-1.13,1.13s0.51,1.13,1.13,1.13h4.26  l1.42,4.86l6.53,22.31c-2.22,0.54-3.88,2.54-3.88,4.92c0,2.79,2.27,5.07,5.07,5.07h5.32c-2.04,0.57-3.55,2.44-3.55,4.67  c0,2.67,2.17,4.84,4.84,4.84c2.67,0,4.84-2.17,4.84-4.84c0-2.22-1.5-4.1-3.55-4.67h12.46c-2.04,0.57-3.55,2.44-3.55,4.67  c0,2.67,2.17,4.84,4.84,4.84c2.67,0,4.84-2.17,4.84-4.84c0-2.22-1.5-4.1-3.55-4.67h5.04c0.63,0,1.13-0.51,1.13-1.13  c0-0.63-0.51-1.13-1.13-1.13H33.18c-1.54,0-2.8-1.26-2.8-2.8s1.26-2.8,2.8-2.8c0.05,0,0.1,0,0.15-0.01  c0.04,0.01,0.09,0.01,0.13,0.01H61.2c0.5,0,0.95-0.33,1.09-0.81l6.91-23.61c0.1-0.34,0.03-0.71-0.18-1  C68.8,40.35,68.47,40.19,68.11,40.19z M42.38,78.6c0,1.42-1.16,2.58-2.58,2.58c-1.42,0-2.58-1.16-2.58-2.58s1.16-2.58,2.58-2.58  C41.23,76.02,42.38,77.18,42.38,78.6z M57.44,78.6c0,1.42-1.16,2.58-2.58,2.58c-1.42,0-2.58-1.16-2.58-2.58s1.16-2.58,2.58-2.58  C56.28,76.02,57.44,77.18,57.44,78.6z M60.35,63.8H34.31l-6.25-21.35H66.6L60.35,63.8z M46.2,59.49V46.59  c0-0.63,0.51-1.13,1.13-1.13c0.63,0,1.13,0.51,1.13,1.13v12.89c0,0.63-0.51,1.13-1.13,1.13C46.71,60.62,46.2,60.11,46.2,59.49z   M54.85,59.49V46.59c0-0.63,0.51-1.13,1.13-1.13c0.63,0,1.13,0.51,1.13,1.13v12.89c0,0.63-0.51,1.13-1.13,1.13  C55.36,60.62,54.85,60.11,54.85,59.49z M37.55,59.49V46.59c0-0.63,0.51-1.13,1.13-1.13s1.13,0.51,1.13,1.13v12.89  c0,0.63-0.51,1.13-1.13,1.13S37.55,60.11,37.55,59.49z M95.57,14.66l-0.32-2.74c-0.05-0.42-0.33-0.78-0.72-0.93l-2.58-0.98  c-3.77-1.43-7.12-3.2-9.95-5.26l-2.66-1.93c-0.4-0.29-0.93-0.29-1.33,0l-2.66,1.93c-2.83,2.06-6.18,3.83-9.95,5.26v0L62.82,11  c-0.4,0.15-0.68,0.51-0.72,0.93l-0.32,2.74c-0.3,2.56-0.37,4.96-0.22,7.2c-5.45-2.69-11.49-4.1-17.61-4.1  c-21.95,0-39.82,17.86-39.82,39.82s17.86,39.82,39.82,39.82s39.82-17.86,39.82-39.82c0-5.36-1.04-10.54-3.1-15.43  C92.17,37.84,97.19,28.6,95.57,14.66z M43.95,95.12C23.24,95.12,6.4,78.28,6.4,57.57s16.84-37.55,37.55-37.55  c6.26,0,12.45,1.57,17.91,4.54c1.35,8.5,6.31,14.4,14.83,17.59l1.58,0.59c0.06,0.02,0.13,0.04,0.2,0.05c2,4.67,3.02,9.64,3.02,14.78  C81.5,78.28,64.65,95.12,43.95,95.12z M79.86,40.03l-1.19,0.44l-1.19-0.44c-10.56-3.94-14.96-12.16-13.46-25.1l0.24-2.05l1.93-0.73  v0c3.96-1.5,7.49-3.36,10.48-5.54l2-1.45l2,1.45c3,2.18,6.52,4.04,10.48,5.54l1.93,0.73l0.24,2.05  C94.82,27.87,90.42,36.08,79.86,40.03z M90.35,14.25c-4.21-1.59-7.81-3.5-11.01-5.83c-0.4-0.29-0.93-0.29-1.33,0  c-3.2,2.33-6.8,4.23-11.01,5.83c-0.4,0.15-0.68,0.51-0.72,0.93c-0.71,6.16-0.03,11,2.09,14.8c2,3.59,5.24,6.18,9.92,7.92  c0.13,0.05,0.26,0.07,0.4,0.07s0.27-0.02,0.4-0.07c4.67-1.74,7.91-4.34,9.92-7.92c2.12-3.8,2.8-8.64,2.09-14.8  C91.03,14.76,90.75,14.4,90.35,14.25z M78.67,35.63c-8.08-3.17-11.26-9.22-10.22-19.51c3.84-1.5,7.2-3.27,10.22-5.39  c3.03,2.11,6.39,3.88,10.22,5.39C89.93,26.41,86.76,32.46,78.67,35.63z M84.9,18.47l-6,10.39c-0.17,0.3-0.48,0.51-0.82,0.56  c-0.05,0.01-0.11,0.01-0.16,0.01c-0.29,0-0.57-0.11-0.78-0.32l-4.49-4.3c-0.45-0.43-0.47-1.15-0.03-1.6  c0.43-0.45,1.15-0.47,1.6-0.03l3.45,3.3l5.27-9.14c0.31-0.54,1.01-0.73,1.55-0.41C85.02,17.23,85.21,17.93,84.9,18.47z"></path></svg>