<svg xmlns="http://www.w3.org/2000/svg" viewBox="1.249 15.688 57.502 28.623" width="57.502" height="28.623"><g><path d="M10.9052734,29.9921875h5.6474609c0.2685547,0,0.4863281-0.2177734,0.4863281-0.4853516v-5.4677734   c0-0.2695313-0.2177734-0.4863281-0.4863281-0.4863281h-5.6474609c-0.2685547,0-0.4863281,0.2167969-0.4863281,0.4863281v5.4677734   C10.4189453,29.7744141,10.6367188,29.9921875,10.9052734,29.9921875z M11.390625,24.5244141h4.6767578v4.4960938H11.390625   V24.5244141z"></path><path d="M58.265625,28.6035156H44.6513672c-0.2685547,0-0.4863281,0.2177734-0.4863281,0.4853516   c0,0.2695313,0.2177734,0.4863281,0.4863281,0.4863281h3.2851563v7.8544922H36.9658203   c-0.5693359-0.3525391-1.2333984-0.5673828-1.9511719-0.5673828c-0.7167969,0-1.3808594,0.2148438-1.9501953,0.5673828H19.4677734   V20.7138672v-4.0537109h28.46875v5.8300781h-5.390625c-0.2685547,0-0.4863281,0.2167969-0.4863281,0.4863281   c0,0.2675781,0.2177734,0.4853516,0.4863281,0.4853516h13.6142578c0.2675781,0,0.4853516-0.2177734,0.4853516-0.4853516   c0-0.2695313-0.2177734-0.4863281-0.4853516-0.4863281h-7.2519531v-6.8017578H18.4960938v5.0253906H8.4277344l-7.1787109,8.7675781   v2.3613281v3.359375v5.8720703h4.3408203c0.2412109,1.8212891,1.7880859,3.2373047,3.6757813,3.2373047   c1.8867188,0,3.4335938-1.4160156,3.6748047-3.2373047h5.5556641h0.9716797h11.8720703   c0.2412109,1.8212891,1.7880859,3.2373047,3.6748047,3.2373047c1.8876953,0,3.4345703-1.4160156,3.6757813-3.2373047h10.2177734   V29.5751953h9.3574219c0.2685547,0,0.4853516-0.2167969,0.4853516-0.4863281   C58.7509766,28.8212891,58.5341797,28.6035156,58.265625,28.6035156z M6.5634766,24.5244141H8.171875v4.4960938H2.8828125   L6.5634766,24.5244141z M2.2207031,32.3291016h0.9316406v2.3867188H2.2207031V32.3291016z M9.265625,43.3398438   c-1.5185547,0-2.7529297-1.2333984-2.7529297-2.7519531s1.234375-2.7539063,2.7529297-2.7539063   c1.5175781,0,2.7529297,1.2353516,2.7529297,2.7539063S10.7832031,43.3398438,9.265625,43.3398438z M18.4960938,40.1025391   h-5.5556641c-0.2412109-1.8222656-1.7880859-3.2402344-3.6748047-3.2402344c-1.8876953,0-3.4345703,1.4179688-3.6757813,3.2402344   H2.2207031V35.6875h1.4179688c0.2685547,0,0.4853516-0.2158203,0.4853516-0.4853516v-3.359375   c0-0.2695313-0.2167969-0.4853516-0.4853516-0.4853516H2.2207031v-1.3652344h6.4375   c0.2685547,0,0.4853516-0.2177734,0.4853516-0.4853516v-5.4677734c0-0.2695313-0.2167969-0.4863281-0.4853516-0.4863281H7.359375   l1.5292969-1.8671875h9.6074219V40.1025391z M19.4677734,38.4013672h12.546875   c-0.3583984,0.4902344-0.5908203,1.0703125-0.6748047,1.7011719H19.4677734V38.4013672z M35.0146484,43.3398438   c-1.5175781,0-2.7519531-1.2333984-2.7519531-2.7519531s1.234375-2.7539063,2.7519531-2.7539063   c1.5185547,0,2.7529297,1.2353516,2.7529297,2.7539063S36.5332031,43.3398438,35.0146484,43.3398438z M38.6904297,40.1025391   c-0.0839844-0.6308594-0.3164063-1.2109375-0.6748047-1.7011719h9.9208984v1.7011719H38.6904297z"></path><path d="M39.3876953,25.3242188c-0.2685547,0-0.4863281,0.2177734-0.4863281,0.4853516   c0,0.2695313,0.2177734,0.4863281,0.4863281,0.4863281h12.5507813c0.2685547,0,0.4863281-0.2167969,0.4863281-0.4863281   c0-0.2675781-0.2177734-0.4853516-0.4863281-0.4853516H39.3876953z"></path></g></svg>  